<?xml version="1.0" encoding="UTF-8"?><svg xmlns="http://www.w3.org/2000/svg" width="105mm" height="155mm" xmlns:xlink="http://www.w3.org/1999/xlink" viewBox="0 0 297.64 439.37"><defs><style>.f,.g,.h{fill:none;}.i{letter-spacing:-.04em;}.j{fill:#231f20;font-size:12px;}.j,.k{font-family:Roboto-Bold, Roboto;}.l{letter-spacing:-.03em;}.m,.n,.o{fill:#8f9397;}.m,.o{font-family:Roboto-Medium, Roboto;font-size:8.5px;}.p{fill:#c42026;}.q{fill:#b12024;}.g{stroke:#fff;stroke-width:1.25px;}.g,.h{stroke-miterlimit:10;}.r{letter-spacing:-.02em;}.s{letter-spacing:-.02em;}.t{letter-spacing:-.02em;}.u{letter-spacing:-.02em;}.v{letter-spacing:-.02em;}.w{letter-spacing:.01em;}.x{letter-spacing:0em;}.y{letter-spacing:-.03em;}.o{mix-blend-mode:multiply;}.a`{clip-path:url(#e);}.aa{clip-path:url(#d);}.ab{isolation:isolate;}.k{fill:#fff;font-size:52px;}.h{stroke:#000;stroke-width:.25px;}</style><clipPath id="d"><rect class="f" x="28.05" y="271.67" width="147.4" height="31.39"/></clipPath><clipPath id="e"><rect class="f" x="-6.83" width="311.29" height="438.85"/></clipPath></defs><g class="ab"><g id="a"/><g id="b"><rect class="q" x="-.08" width="297.81" height="107.1"/></g><g id="c"><text class="j" transform="translate(224.67 390.11)"><tspan class="v" x="0" y="0">R</tspan><tspan class="s" x="7.36" y="0">yb</tspan><tspan class="v" x="19.56" y="0">ka </tspan><tspan class="s" x="34.49" y="0">S</tspan><tspan x="41.58" y="0">.</tspan></text><text class="m" transform="translate(218.36 401.58)"><tspan class="l" x="0" y="0">E</tspan><tspan class="u" x="4.52" y="0">di</tspan><tspan class="i" x="11.06" y="0">t</tspan><tspan class="u" x="13.56" y="0">or-in-chi</tspan><tspan class="t" x="43.29" y="0">e</tspan><tspan x="47.64" y="0">f</tspan></text><text class="m" transform="translate(28.05 366.84)"><tspan class="u" x="0" y="0">Iss</tspan><tspan class="r" x="10.54" y="0">u</tspan><tspan x="15.05" y="0">e</tspan></text><path class="n" d="M33.28,318.29c-.06,.64-.3,1.15-.71,1.51s-.97,.54-1.66,.54c-.48,0-.91-.11-1.27-.34-.37-.23-.65-.55-.85-.97-.2-.42-.3-.91-.31-1.47v-.56c0-.57,.1-1.07,.3-1.51,.2-.43,.49-.77,.87-1,.38-.24,.81-.35,1.31-.35,.67,0,1.2,.18,1.61,.54s.64,.87,.71,1.53h-1.05c-.05-.43-.18-.75-.38-.94-.2-.19-.5-.29-.89-.29-.46,0-.81,.17-1.05,.5-.24,.33-.37,.82-.38,1.47v.54c0,.65,.12,1.15,.35,1.5,.23,.34,.58,.52,1.03,.52,.41,0,.72-.09,.93-.28,.21-.19,.34-.49,.39-.93h1.05Zm2.61,2.05c-.64,0-1.16-.2-1.55-.6-.4-.4-.6-.94-.6-1.61v-.12c0-.45,.09-.85,.26-1.2,.17-.35,.42-.63,.73-.82,.31-.2,.66-.29,1.05-.29,.61,0,1.08,.2,1.42,.59,.33,.39,.5,.94,.5,1.66v.41h-2.93c.03,.37,.15,.66,.37,.88,.22,.22,.49,.32,.82,.32,.46,0,.84-.19,1.13-.56l.54,.52c-.18,.27-.42,.48-.72,.62-.3,.15-.64,.22-1.01,.22Zm-.12-3.85c-.28,0-.5,.1-.67,.29-.17,.19-.28,.46-.33,.81h1.92v-.07c-.02-.34-.11-.59-.27-.77-.16-.17-.38-.26-.66-.26Zm4.85,.2c-.13-.02-.27-.03-.41-.03-.46,0-.77,.18-.93,.53v3.07h-1.01v-4.49h.96l.02,.5c.24-.39,.58-.59,1.01-.59,.14,0,.26,.02,.36,.06v.95Zm1.89-2.01v1.09h.79v.75h-.79v2.51c0,.17,.03,.3,.1,.37,.07,.08,.19,.11,.36,.11,.12,0,.23-.01,.35-.04v.78c-.23,.06-.45,.1-.66,.1-.77,0-1.16-.43-1.16-1.28v-2.54h-.74v-.75h.74v-1.09h1.01Zm1.35-.07c0-.15,.05-.28,.15-.39,.1-.1,.24-.15,.42-.15s.32,.05,.42,.15c.1,.1,.15,.23,.15,.39s-.05,.28-.15,.38c-.1,.1-.24,.15-.42,.15s-.32-.05-.42-.15c-.1-.1-.15-.23-.15-.38Zm1.07,5.66h-1.01v-4.49h1.01v4.49Zm1.15,0v-3.74h-.68v-.75h.68v-.31c0-.35,.08-.65,.22-.9,.15-.25,.35-.44,.62-.57,.27-.13,.59-.19,.97-.19,.22,0,.43,.02,.64,.07,.2,.05,.41,.11,.63,.18l-.15,.83c-.38-.13-.73-.2-1.05-.2s-.53,.07-.67,.2c-.14,.13-.21,.34-.21,.6v.28h.88v.75h-.88v3.74h-1.01Zm3.56,0h-1.01v-4.49h1.01v4.49Zm2.75-.72c.25,0,.46-.07,.63-.22,.17-.15,.25-.33,.27-.54h.95c-.01,.28-.1,.54-.26,.78-.16,.24-.38,.43-.66,.57-.28,.14-.58,.21-.9,.21-.63,0-1.13-.2-1.49-.61-.37-.41-.55-.97-.55-1.69v-.1c0-.68,.18-1.23,.55-1.64s.86-.62,1.49-.62c.53,0,.97,.16,1.31,.47s.51,.72,.53,1.23h-.95c-.01-.26-.1-.47-.26-.64-.16-.17-.37-.25-.63-.25-.33,0-.58,.12-.76,.35-.18,.24-.27,.6-.27,1.08v.16c0,.49,.09,.85,.26,1.09,.18,.24,.43,.36,.76,.36Zm5.07,.72c-.04-.09-.08-.23-.12-.42-.32,.33-.71,.5-1.18,.5s-.82-.13-1.1-.39c-.29-.26-.43-.58-.43-.95,0-.48,.18-.85,.53-1.1,.36-.26,.86-.38,1.53-.38h.62v-.29c0-.23-.07-.42-.2-.56-.13-.14-.33-.21-.59-.21-.23,0-.42,.06-.56,.17-.15,.11-.22,.26-.22,.44h-1.01c0-.25,.08-.48,.24-.69,.16-.21,.39-.38,.67-.5,.28-.12,.59-.18,.94-.18,.53,0,.94,.13,1.26,.4,.31,.26,.47,.64,.48,1.11v2.03c0,.4,.06,.73,.17,.97v.07h-1.03Zm-1.11-.73c.2,0,.39-.05,.56-.15,.18-.1,.31-.23,.4-.39v-.85h-.54c-.37,0-.65,.07-.84,.2-.19,.13-.28,.31-.28,.55,0,.19,.06,.35,.19,.46,.13,.11,.3,.17,.52,.17Zm4.07-4.86v1.09h.79v.75h-.79v2.51c0,.17,.03,.3,.1,.37,.07,.08,.19,.11,.36,.11,.12,0,.23-.01,.35-.04v.78c-.23,.06-.45,.1-.66,.1-.77,0-1.16-.43-1.16-1.28v-2.54h-.74v-.75h.74v-1.09h1.01Zm3.33,5.67c-.64,0-1.16-.2-1.55-.6-.4-.4-.6-.94-.6-1.61v-.12c0-.45,.09-.85,.26-1.2,.17-.35,.42-.63,.73-.82,.31-.2,.66-.29,1.05-.29,.61,0,1.08,.2,1.42,.59,.33,.39,.5,.94,.5,1.66v.41h-2.93c.03,.37,.15,.66,.37,.88,.22,.22,.49,.32,.82,.32,.46,0,.84-.19,1.13-.56l.54,.52c-.18,.27-.42,.48-.72,.62-.3,.15-.64,.22-1.01,.22Zm-.12-3.85c-.28,0-.5,.1-.67,.29-.17,.19-.28,.46-.33,.81h1.92v-.07c-.02-.34-.11-.59-.27-.77-.16-.17-.38-.26-.66-.26Zm4.21,1.48c0-.44,.09-.84,.26-1.19s.42-.62,.73-.81c.32-.19,.68-.28,1.09-.28,.61,0,1.1,.2,1.48,.59s.58,.91,.61,1.55v.24c0,.44-.08,.84-.25,1.19s-.41,.62-.73,.81c-.32,.19-.68,.29-1.1,.29-.63,0-1.14-.21-1.52-.63-.38-.42-.57-.98-.57-1.69v-.05Zm1.01,.09c0,.46,.1,.82,.29,1.09s.46,.39,.8,.39,.61-.13,.79-.4c.19-.27,.28-.65,.28-1.17,0-.45-.1-.81-.29-1.08s-.46-.4-.79-.4-.59,.13-.78,.39c-.19,.26-.29,.65-.29,1.17Zm4.16,2.2v-3.74h-.68v-.75h.68v-.41c0-.5,.14-.88,.42-1.15,.28-.27,.66-.41,1.16-.41,.18,0,.37,.02,.56,.07l-.02,.79c-.11-.02-.24-.03-.39-.03-.48,0-.72,.25-.72,.74v.4h.91v.75h-.91v3.74h-1.01Zm6.7-3.57c-.13-.02-.27-.03-.41-.03-.46,0-.77,.18-.93,.53v3.07h-1.01v-4.49h.96l.02,.5c.24-.39,.58-.59,1.01-.59,.14,0,.26,.02,.36,.06v.95Zm2.32,3.65c-.64,0-1.16-.2-1.55-.6-.4-.4-.6-.94-.6-1.61v-.12c0-.45,.09-.85,.26-1.2,.17-.35,.42-.63,.73-.82,.31-.2,.66-.29,1.05-.29,.61,0,1.08,.2,1.42,.59,.33,.39,.5,.94,.5,1.66v.41h-2.93c.03,.37,.15,.66,.37,.88,.22,.22,.49,.32,.82,.32,.46,0,.84-.19,1.13-.56l.54,.52c-.18,.27-.42,.48-.72,.62-.3,.15-.64,.22-1.01,.22Zm-.12-3.85c-.28,0-.5,.1-.67,.29-.17,.19-.28,.46-.33,.81h1.92v-.07c-.02-.34-.11-.59-.27-.77-.16-.17-.38-.26-.66-.26Zm2.32,1.49c0-.7,.16-1.25,.49-1.67,.33-.42,.76-.62,1.31-.62,.51,0,.91,.18,1.21,.54l.05-.45h.91v4.35c0,.59-.18,1.05-.55,1.39-.37,.34-.86,.51-1.48,.51-.33,0-.65-.07-.96-.21-.31-.14-.55-.32-.72-.54l.48-.61c.31,.37,.69,.55,1.15,.55,.33,0,.6-.09,.79-.27,.19-.18,.29-.45,.29-.8v-.3c-.29,.32-.68,.49-1.16,.49-.53,0-.96-.21-1.29-.63-.33-.42-.5-1-.5-1.73Zm1,.09c0,.45,.09,.81,.28,1.06,.18,.26,.44,.39,.77,.39,.41,0,.71-.17,.9-.52v-1.98c-.19-.34-.49-.51-.9-.51-.33,0-.59,.13-.77,.39-.18,.26-.28,.65-.28,1.16Zm3.78-3.47c0-.15,.05-.28,.15-.39,.1-.1,.24-.15,.42-.15s.32,.05,.42,.15c.1,.1,.15,.23,.15,.39s-.05,.28-.15,.38c-.1,.1-.24,.15-.42,.15s-.32-.05-.42-.15c-.1-.1-.15-.23-.15-.38Zm1.07,5.66h-1.01v-4.49h1.01v4.49Zm3.4-1.22c0-.18-.07-.32-.22-.41-.15-.09-.39-.18-.74-.25-.34-.07-.63-.16-.86-.27-.5-.24-.76-.6-.76-1.06,0-.39,.16-.71,.49-.97,.33-.26,.74-.39,1.25-.39,.54,0,.97,.13,1.3,.4,.33,.27,.5,.61,.5,1.03h-1.01c0-.19-.07-.35-.22-.48-.14-.13-.33-.19-.57-.19-.22,0-.4,.05-.54,.15-.14,.1-.21,.24-.21,.41,0,.15,.06,.28,.2,.36,.13,.09,.39,.17,.79,.26,.4,.09,.71,.19,.93,.31,.23,.12,.39,.26,.5,.43,.11,.17,.16,.37,.16,.61,0,.4-.17,.73-.5,.98-.33,.25-.77,.38-1.32,.38-.37,0-.7-.07-.98-.2-.29-.13-.51-.32-.67-.55-.16-.23-.24-.48-.24-.75h.98c.01,.24,.1,.42,.27,.55s.39,.19,.66,.19,.47-.05,.61-.15c.14-.1,.21-.23,.21-.4Zm2.92-4.36v1.09h.79v.75h-.79v2.51c0,.17,.03,.3,.1,.37,.07,.08,.19,.11,.36,.11,.12,0,.23-.01,.35-.04v.78c-.23,.06-.45,.1-.66,.1-.77,0-1.16-.43-1.16-1.28v-2.54h-.74v-.75h.74v-1.09h1.01Zm3.7,2.01c-.13-.02-.27-.03-.41-.03-.46,0-.77,.18-.93,.53v3.07h-1.01v-4.49h.96l.02,.5c.24-.39,.58-.59,1.01-.59,.14,0,.26,.02,.36,.06v.95Zm2.98,3.57c-.04-.09-.08-.23-.12-.42-.32,.33-.71,.5-1.18,.5s-.82-.13-1.1-.39c-.29-.26-.43-.58-.43-.95,0-.48,.18-.85,.53-1.1,.36-.26,.86-.38,1.53-.38h.62v-.29c0-.23-.07-.42-.2-.56-.13-.14-.33-.21-.59-.21-.23,0-.42,.06-.56,.17-.15,.11-.22,.26-.22,.44h-1.01c0-.25,.08-.48,.24-.69,.16-.21,.39-.38,.67-.5,.28-.12,.59-.18,.94-.18,.53,0,.94,.13,1.26,.4,.31,.26,.47,.64,.48,1.11v2.03c0,.4,.06,.73,.17,.97v.07h-1.03Zm-1.11-.73c.2,0,.39-.05,.56-.15,.18-.1,.31-.23,.4-.39v-.85h-.54c-.37,0-.65,.07-.84,.2-.19,.13-.28,.31-.28,.55,0,.19,.06,.35,.19,.46,.13,.11,.3,.17,.52,.17Zm4.07-4.86v1.09h.79v.75h-.79v2.51c0,.17,.03,.3,.1,.37,.07,.08,.19,.11,.36,.11,.12,0,.23-.01,.35-.04v.78c-.23,.06-.45,.1-.66,.1-.77,0-1.16-.43-1.16-1.28v-2.54h-.74v-.75h.74v-1.09h1.01Zm1.35-.07c0-.15,.05-.28,.15-.39,.1-.1,.24-.15,.42-.15s.32,.05,.42,.15c.1,.1,.15,.23,.15,.39s-.05,.28-.15,.38c-.1,.1-.24,.15-.42,.15s-.32-.05-.42-.15c-.1-.1-.15-.23-.15-.38Zm1.07,5.66h-1.01v-4.49h1.01v4.49Zm.69-2.29c0-.44,.09-.84,.26-1.19s.42-.62,.73-.81c.32-.19,.68-.28,1.09-.28,.61,0,1.1,.2,1.48,.59s.58,.91,.61,1.55v.24c0,.44-.08,.84-.25,1.19s-.41,.62-.73,.81c-.32,.19-.68,.29-1.1,.29-.63,0-1.14-.21-1.52-.63-.38-.42-.57-.98-.57-1.69v-.05Zm1.01,.09c0,.46,.1,.82,.29,1.09s.46,.39,.8,.39,.61-.13,.79-.4c.19-.27,.28-.65,.28-1.17,0-.45-.1-.81-.29-1.08s-.46-.4-.79-.4-.59,.13-.78,.39c-.19,.26-.29,.65-.29,1.17Zm4.74-2.29l.03,.52c.33-.4,.77-.6,1.31-.6,.94,0,1.41,.54,1.43,1.61v2.97h-1.01v-2.91c0-.28-.06-.5-.18-.63-.12-.14-.32-.21-.6-.21-.41,0-.71,.18-.91,.55v3.2h-1.01v-4.49h.95Zm5.29,2.2c0-.44,.09-.84,.26-1.19s.42-.62,.73-.81c.32-.19,.68-.28,1.09-.28,.61,0,1.1,.2,1.48,.59s.58,.91,.61,1.55v.24c0,.44-.08,.84-.25,1.19s-.41,.62-.73,.81c-.32,.19-.68,.29-1.1,.29-.63,0-1.14-.21-1.52-.63-.38-.42-.57-.98-.57-1.69v-.05Zm1.01,.09c0,.46,.1,.82,.29,1.09s.46,.39,.8,.39,.61-.13,.79-.4c.19-.27,.28-.65,.28-1.17,0-.45-.1-.81-.29-1.08s-.46-.4-.79-.4-.59,.13-.78,.39c-.19,.26-.29,.65-.29,1.17Zm4.16,2.2v-3.74h-.68v-.75h.68v-.41c0-.5,.14-.88,.42-1.15,.28-.27,.66-.41,1.16-.41,.18,0,.37,.02,.56,.07l-.02,.79c-.11-.02-.24-.03-.39-.03-.48,0-.72,.25-.72,.74v.4h.91v.75h-.91v3.74h-1.01Zm5.61-5.58v1.09h.79v.75h-.79v2.51c0,.17,.03,.3,.1,.37,.07,.08,.19,.11,.36,.11,.12,0,.23-.01,.35-.04v.78c-.23,.06-.45,.1-.66,.1-.77,0-1.16-.43-1.16-1.28v-2.54h-.74v-.75h.74v-1.09h1.01Zm2.34,1.58c.33-.38,.75-.57,1.25-.57,.96,0,1.44,.55,1.46,1.64v2.93h-1.01v-2.9c0-.31-.07-.53-.2-.66-.13-.13-.33-.19-.59-.19-.4,0-.71,.18-.9,.54v3.21h-1.01v-6.38h1.01v2.37Zm5.49,4.08c-.64,0-1.16-.2-1.55-.6-.4-.4-.6-.94-.6-1.61v-.12c0-.45,.09-.85,.26-1.2,.17-.35,.42-.63,.73-.82,.31-.2,.66-.29,1.05-.29,.61,0,1.08,.2,1.42,.59,.33,.39,.5,.94,.5,1.66v.41h-2.93c.03,.37,.15,.66,.37,.88,.22,.22,.49,.32,.82,.32,.46,0,.84-.19,1.13-.56l.54,.52c-.18,.27-.42,.48-.72,.62-.3,.15-.64,.22-1.01,.22Zm-.12-3.85c-.28,0-.5,.1-.67,.29-.17,.19-.28,.46-.33,.81h1.92v-.07c-.02-.34-.11-.59-.27-.77-.16-.17-.38-.26-.66-.26Zm5.35-.73l.03,.47c.32-.37,.75-.55,1.29-.55,.6,0,1.01,.23,1.23,.69,.33-.46,.79-.69,1.38-.69,.5,0,.86,.14,1.11,.41,.24,.27,.37,.68,.37,1.21v2.95h-1.01v-2.92c0-.28-.06-.49-.19-.63s-.33-.2-.62-.2c-.23,0-.42,.06-.56,.18-.15,.12-.25,.28-.31,.48v3.08h-1v-2.96c-.01-.53-.28-.79-.81-.79-.4,0-.69,.16-.86,.49v3.25h-1.01v-4.49h.95Zm8.92,4.49c-.04-.09-.08-.23-.12-.42-.32,.33-.71,.5-1.18,.5s-.82-.13-1.1-.39c-.29-.26-.43-.58-.43-.95,0-.48,.18-.85,.53-1.1,.36-.26,.86-.38,1.53-.38h.62v-.29c0-.23-.07-.42-.2-.56-.13-.14-.33-.21-.59-.21-.23,0-.42,.06-.56,.17-.15,.11-.22,.26-.22,.44h-1.01c0-.25,.08-.48,.24-.69,.16-.21,.39-.38,.67-.5,.28-.12,.59-.18,.94-.18,.53,0,.94,.13,1.26,.4,.31,.26,.47,.64,.48,1.11v2.03c0,.4,.06,.73,.17,.97v.07h-1.03Zm-1.11-.73c.2,0,.39-.05,.56-.15,.18-.1,.31-.23,.4-.39v-.85h-.54c-.37,0-.65,.07-.84,.2-.19,.13-.28,.31-.28,.55,0,.19,.06,.35,.19,.46,.13,.11,.3,.17,.52,.17Zm5.33-.49c0-.18-.07-.32-.22-.41-.15-.09-.39-.18-.74-.25-.34-.07-.63-.16-.86-.27-.5-.24-.76-.6-.76-1.06,0-.39,.16-.71,.49-.97,.33-.26,.74-.39,1.25-.39,.54,0,.97,.13,1.3,.4,.33,.27,.5,.61,.5,1.03h-1.01c0-.19-.07-.35-.22-.48-.14-.13-.33-.19-.57-.19-.22,0-.4,.05-.54,.15-.14,.1-.21,.24-.21,.41,0,.15,.06,.28,.2,.36,.13,.09,.39,.17,.79,.26,.4,.09,.71,.19,.93,.31,.23,.12,.39,.26,.5,.43,.11,.17,.16,.37,.16,.61,0,.4-.17,.73-.5,.98-.33,.25-.77,.38-1.32,.38-.37,0-.7-.07-.98-.2-.29-.13-.51-.32-.67-.55-.16-.23-.24-.48-.24-.75h.98c.01,.24,.1,.42,.27,.55s.39,.19,.66,.19,.47-.05,.61-.15c.14-.1,.21-.23,.21-.4Zm4.17,0c0-.18-.07-.32-.22-.41-.15-.09-.39-.18-.74-.25-.34-.07-.63-.16-.86-.27-.5-.24-.76-.6-.76-1.06,0-.39,.16-.71,.49-.97,.33-.26,.74-.39,1.25-.39,.54,0,.97,.13,1.3,.4,.33,.27,.5,.61,.5,1.03h-1.01c0-.19-.07-.35-.22-.48-.14-.13-.33-.19-.57-.19-.22,0-.4,.05-.54,.15-.14,.1-.21,.24-.21,.41,0,.15,.06,.28,.2,.36,.13,.09,.39,.17,.79,.26,.4,.09,.71,.19,.93,.31,.23,.12,.39,.26,.5,.43,.11,.17,.16,.37,.16,.61,0,.4-.17,.73-.5,.98-.33,.25-.77,.38-1.32,.38-.37,0-.7-.07-.98-.2-.29-.13-.51-.32-.67-.55-.16-.23-.24-.48-.24-.75h.98c.01,.24,.1,.42,.27,.55s.39,.19,.66,.19,.47-.05,.61-.15c.14-.1,.21-.23,.21-.4Zm4.51-3.27l.03,.47c.32-.37,.75-.55,1.29-.55,.6,0,1.01,.23,1.23,.69,.33-.46,.79-.69,1.38-.69,.5,0,.86,.14,1.11,.41,.24,.27,.37,.68,.37,1.21v2.95h-1.01v-2.92c0-.28-.06-.49-.19-.63s-.33-.2-.62-.2c-.23,0-.42,.06-.56,.18-.15,.12-.25,.28-.31,.48v3.08h-1v-2.96c-.01-.53-.28-.79-.81-.79-.4,0-.69,.16-.86,.49v3.25h-1.01v-4.49h.95Zm8.21,4.57c-.64,0-1.16-.2-1.55-.6-.4-.4-.6-.94-.6-1.61v-.12c0-.45,.09-.85,.26-1.2,.17-.35,.42-.63,.73-.82,.31-.2,.66-.29,1.05-.29,.61,0,1.08,.2,1.42,.59,.33,.39,.5,.94,.5,1.66v.41h-2.93c.03,.37,.15,.66,.37,.88,.22,.22,.49,.32,.82,.32,.46,0,.84-.19,1.13-.56l.54,.52c-.18,.27-.42,.48-.72,.62-.3,.15-.64,.22-1.01,.22Zm-.12-3.85c-.28,0-.5,.1-.67,.29-.17,.19-.28,.46-.33,.81h1.92v-.07c-.02-.34-.11-.59-.27-.77-.16-.17-.38-.26-.66-.26Zm2.31,1.49c0-.69,.16-1.25,.48-1.67,.32-.42,.75-.63,1.29-.63,.48,0,.86,.17,1.15,.5v-2.3h1.01v6.38h-.91l-.05-.46c-.3,.37-.7,.55-1.21,.55s-.95-.21-1.28-.64c-.33-.42-.49-1-.49-1.73Zm1.01,.09c0,.46,.09,.81,.26,1.07,.18,.26,.43,.38,.75,.38,.41,0,.71-.18,.9-.55v-1.92c-.19-.36-.48-.54-.9-.54-.33,0-.58,.13-.76,.39-.18,.26-.27,.65-.27,1.17Zm3.76-3.47c0-.15,.05-.28,.15-.39,.1-.1,.24-.15,.42-.15s.32,.05,.42,.15c.1,.1,.15,.23,.15,.39s-.05,.28-.15,.38c-.1,.1-.24,.15-.42,.15s-.32-.05-.42-.15c-.1-.1-.15-.23-.15-.38Zm1.07,5.66h-1.01v-4.49h1.01v4.49Zm3.57,0c-.04-.09-.08-.23-.12-.42-.32,.33-.71,.5-1.18,.5s-.82-.13-1.1-.39c-.29-.26-.43-.58-.43-.95,0-.48,.18-.85,.53-1.1,.36-.26,.86-.38,1.53-.38h.62v-.29c0-.23-.07-.42-.2-.56-.13-.14-.33-.21-.59-.21-.23,0-.42,.06-.56,.17-.15,.11-.22,.26-.22,.44h-1.01c0-.25,.08-.48,.24-.69,.16-.21,.39-.38,.67-.5,.28-.12,.59-.18,.94-.18,.53,0,.94,.13,1.26,.4,.31,.26,.47,.64,.48,1.11v2.03c0,.4,.06,.73,.17,.97v.07h-1.03Zm-1.11-.73c.2,0,.39-.05,.56-.15,.18-.1,.31-.23,.4-.39v-.85h-.54c-.37,0-.65,.07-.84,.2-.19,.13-.28,.31-.28,.55,0,.19,.06,.35,.19,.46,.13,.11,.3,.17,.52,.17Zm3.42-3.86c.19,0,.33,.05,.44,.16,.1,.11,.15,.24,.15,.4s-.05,.29-.15,.39c-.1,.1-.25,.16-.44,.16s-.32-.05-.43-.15c-.11-.1-.16-.23-.16-.39s.05-.29,.15-.4c.1-.11,.25-.16,.43-.16Zm0,3.52c.19,0,.33,.05,.44,.16,.1,.11,.15,.24,.15,.4s-.05,.29-.15,.39c-.1,.1-.25,.16-.44,.16s-.32-.05-.43-.15c-.11-.1-.16-.23-.16-.39s.05-.29,.15-.4c.1-.11,.25-.16,.43-.16Zm6.97-1.64h-2.48v1.86h2.9v.84h-3.95v-6.04h3.92v.85h-2.87v1.67h2.48v.83Zm2.11,1.86h2.74v.84h-3.79v-6.04h1.05v5.2Zm7.61-.86h-.93l-.32,1.7h-.7l.32-1.7h-.96v-.66h1.08l.24-1.3h-1.01v-.66h1.13l.32-1.73h.69l-.32,1.73h.93l.32-1.73h.69l-.32,1.73h.86v.66h-.99l-.24,1.3h.92v.66h-1.04l-.32,1.7h-.69l.32-1.7Zm-.81-.66h.93l.24-1.3h-.93l-.24,1.3Zm8.79-.2h-2.43v2.56h-1.05v-6.04h3.84v.85h-2.79v1.8h2.43v.84Zm4.13,1c0-.27-.09-.47-.28-.61-.19-.14-.52-.29-1.01-.44-.49-.15-.87-.31-1.16-.49-.55-.35-.83-.8-.83-1.35,0-.49,.2-.89,.6-1.2,.4-.32,.91-.47,1.55-.47,.42,0,.8,.08,1.12,.23,.33,.15,.59,.38,.78,.66,.19,.29,.28,.6,.28,.95h-1.05c0-.32-.1-.56-.3-.74-.2-.18-.48-.27-.85-.27-.34,0-.61,.07-.8,.22-.19,.15-.28,.35-.28,.61,0,.22,.1,.41,.31,.55,.2,.15,.54,.29,1.01,.43,.47,.14,.85,.3,1.13,.48,.28,.18,.49,.38,.63,.61,.13,.23,.2,.5,.2,.81,0,.5-.19,.9-.58,1.2-.39,.3-.91,.45-1.57,.45-.44,0-.84-.08-1.21-.24-.37-.16-.65-.39-.85-.67-.2-.28-.31-.62-.31-1h1.05c0,.34,.11,.61,.34,.8,.23,.19,.55,.28,.98,.28,.37,0,.64-.07,.82-.22,.18-.15,.28-.34,.28-.59Zm7.52-3.93l-2.42,5.48h-1.06l2.41-5.23h-3.13v-.81h4.19v.56Zm4.62,0l-2.42,5.48h-1.06l2.41-5.23h-3.13v-.81h4.19v.56Zm2.61,3.32h-2.18v-.81h2.18v.81Zm3.69-3.91v.83h-.12c-.56,0-1.02,.16-1.35,.46-.34,.3-.54,.73-.6,1.28,.32-.34,.74-.51,1.24-.51,.53,0,.96,.19,1.26,.56,.31,.38,.46,.86,.46,1.46s-.18,1.11-.54,1.49c-.36,.38-.83,.57-1.42,.57s-1.09-.22-1.47-.67c-.37-.45-.56-1.03-.56-1.75v-.34c0-1.06,.26-1.89,.77-2.49,.52-.6,1.26-.9,2.23-.9h.1Zm-1.08,2.88c-.22,0-.42,.06-.61,.19-.18,.12-.32,.29-.4,.5v.31c0,.45,.09,.8,.28,1.07,.19,.26,.43,.4,.73,.4s.54-.11,.71-.34,.26-.52,.26-.88-.09-.66-.27-.89c-.18-.23-.41-.34-.71-.34Zm6.58-2.3l-2.42,5.48h-1.06l2.41-5.23h-3.13v-.81h4.19v.56Zm3.73-.59v.83h-.12c-.56,0-1.02,.16-1.35,.46-.34,.3-.54,.73-.6,1.28,.32-.34,.74-.51,1.24-.51,.53,0,.96,.19,1.26,.56,.31,.38,.46,.86,.46,1.46s-.18,1.11-.54,1.49c-.36,.38-.83,.57-1.42,.57s-1.09-.22-1.47-.67c-.37-.45-.56-1.03-.56-1.75v-.34c0-1.06,.26-1.89,.77-2.49,.52-.6,1.26-.9,2.23-.9h.1Zm-1.08,2.88c-.22,0-.42,.06-.61,.19-.18,.12-.32,.29-.4,.5v.31c0,.45,.09,.8,.28,1.07,.19,.26,.43,.4,.73,.4s.54-.11,.71-.34,.26-.52,.26-.88-.09-.66-.27-.89c-.18-.23-.41-.34-.71-.34Zm5.97,1.03h.75v.81h-.75v1.34h-1.01v-1.34h-2.61l-.03-.61,2.61-4.08h1.04v3.89Zm-2.59,0h1.58v-2.52l-.07,.13-1.51,2.39Zm7.86,2.15h-4.06v-.69l2.01-2.2c.29-.32,.5-.59,.62-.81,.12-.22,.18-.44,.18-.65,0-.29-.08-.52-.24-.7-.16-.18-.38-.27-.65-.27-.33,0-.58,.1-.76,.3-.18,.2-.27,.47-.27,.82h-1.01c0-.37,.08-.7,.25-.99,.17-.29,.41-.52,.72-.69,.31-.16,.67-.24,1.08-.24,.59,0,1.05,.15,1.39,.44,.34,.29,.51,.7,.51,1.22,0,.3-.09,.62-.26,.95-.17,.33-.45,.71-.84,1.13l-1.48,1.58h2.81v.81Zm1.25-1.06c.19,0,.33,.05,.44,.16,.1,.11,.15,.24,.15,.4s-.05,.29-.15,.39c-.1,.1-.25,.16-.44,.16s-.32-.05-.43-.15c-.11-.1-.16-.23-.16-.39s.05-.29,.15-.4c.1-.11,.25-.16,.43-.16Z"/><g class="aa"><path d="M41.06,292.75l.18-.89-.22-.08c-.89,2.47-3.44,3.01-5.28,3.01-4.49,0-7.69-3.44-7.69-8.72s3.16-8.66,7.71-8.66c2.59,0,4.37,1.01,5.46,2.91l.67-2.51h4.71v1.27h-2.73v15.04c0,4.45-1.29,8.58-8.01,8.58-3.66,0-5.6-2.19-6.25-2.95l1.84-1.68c1.19,1.98,2.43,3.48,4.8,3.48,2.69,0,4.76-1.64,4.76-5.73v-3.06h.04Zm0-8.4c0-3.01-1.62-5.46-4.57-5.46-1.36,0-5.28,.4-5.28,7.1,0,5.89,3.12,7.14,5.28,7.14,2.41,0,4.57-1.8,4.57-5.5v-3.28Zm23.05,8.8v1.26h-5.46v-1.5c-1.22,1.26-3.34,1.9-5.14,1.9-4.01,0-6.11-2.91-6.11-5.5,0-3.03,2.33-6.03,6.35-6.03,1.98,0,3.78,.65,4.88,2.06v-2.59c0-2.87-1.54-4.17-3.78-4.17-1.68,0-3.38,.71-4.67,1.9l-1.01-1.4c1.68-1.23,3.3-1.66,5.59-1.66,6.43,0,6.5,3.8,6.5,7.89v7.83h2.83v.02Zm-5.46-5.5c-.39-1.05-1.44-2.87-4.01-2.87s-4.31,1.98-4.31,4.57c0,2.45,2.15,3.95,4.23,3.95,1.44,0,3.3-.87,4.09-2.73v-2.93Zm21.75-9.83l-10.52,15.32h8.46v-3.7h1.94v4.94h-14.49l10.52-15.32h-8.01v3.74h-1.98v-4.98h14.08Zm4.8,8.64c-.04,5.6,3.7,6.96,6.29,6.96,2.08,0,3.74-.93,5.5-2.69l.93,.97c-1.68,1.98-4.63,3.08-7.18,3.08-6.07,0-8.72-4.59-8.72-9.11,0-5.38,3.95-8.26,8.01-8.26s8.18,2.73,7.89,9.04h-12.71v.02Zm9.55-1.15c0-4.21-2.15-6.74-4.84-6.74-2.83,0-4.84,3.03-4.71,6.74h9.55Zm10.08-13.64v6.13h3.84v1.27h-3.84v11.62c0,1.48,.12,2.94,1.58,2.94,.57,0,1.36-.32,2.08-2.02l1.44,1.19c-1.5,1.76-2.63,1.98-3.8,1.98-4.01,0-4.13-2.83-4.13-4.39v-11.35h-2.73v-1.26h2.73v-4.13l2.83-1.98Zm22.79,21.47v1.26h-5.46v-1.5c-1.23,1.26-3.34,1.9-5.14,1.9-4.01,0-6.11-2.91-6.11-5.5,0-3.03,2.33-6.03,6.35-6.03,1.98,0,3.78,.65,4.88,2.06v-2.59c0-2.87-1.54-4.17-3.78-4.17-1.68,0-3.38,.71-4.67,1.9l-1.01-1.4c1.68-1.23,3.3-1.66,5.59-1.66,6.43,0,6.51,3.8,6.51,7.89v7.83h2.83v.02Zm-5.46-5.5c-.4-1.05-1.44-2.87-4.01-2.87s-4.31,1.98-4.31,4.57c0,2.45,2.15,3.95,4.23,3.95,1.44,0,3.3-.87,4.09-2.73v-2.93Z"/><path class="p" d="M131.1,291.25c.98,0,1.77,.8,1.77,1.78s-.79,1.78-1.77,1.78-1.77-.8-1.77-1.78,.79-1.78,1.77-1.78"/><path d="M140.45,277.82v2.63h.18c.83-1.98,2.02-3.02,3.87-3.02,.46,0,1.86,.1,2.69,1.19l-1.44,2.29c-.4-.57-1.07-1.32-2.08-1.32-1.5,0-3.22,1.82-3.22,4.76v8.8h2.73v1.26h-8.28v-1.26h2.73v-14.08h-2.73v-1.27h5.56v.02Zm13.5,0v11.05c0,.87,0,4.39,3.66,4.39,2.29,0,4.31-1.4,4.31-4.76v-9.41h-2.73v-1.27h5.56v15.32h2.73v1.26h-5.56v-1.4l.18-.83h-.22l-.44,.79c-1.5,1.58-3.3,1.84-4.49,1.84-5.75,0-5.85-4.53-5.85-6.07v-9.65h-2.73v-1.27h5.58Z"/></g><rect x="28.35" y="262.08" width="240.95" height="2.84"/><rect class="n" x="28.35" y="354.65" width="113.39" height=".71"/><rect class="n" x="155.91" y="354.65" width="113.39" height=".71"/><text class="o" transform="translate(155.61 364.35)"><tspan class="u" x="0" y="0">E</tspan><tspan class="t" x="4.59" y="0">xp</tspan><tspan class="y" x="13.25" y="0">i</tspan><tspan class="l" x="15.2" y="0">r</tspan><tspan class="t" x="17.9" y="0">e</tspan><tspan x="22.26" y="0">s</tspan></text><g class="a`"><path class="g" d="M283.46,423.85v15m0-423.85V0M14.17,423.85v15M14.17,15V0M289.46,417.85h15m-296.29,0H-6.83M289.46,21h15M8.17,21H-6.83"/><path class="h" d="M283.46,423.85v15m0-423.85V0M14.17,423.85v15M14.17,15V0M289.46,417.85h15m-296.29,0H-6.83M289.46,21h15M8.17,21H-6.83"/></g><text class="k" transform="translate(67.88 96.52)"><tspan class="x" x="0" y="0">PR</tspan><tspan class="w" x="67.66" y="0">ES</tspan><tspan x="129.92" y="0">S</tspan></text></g></g></svg>